<svg width="16" height="16" viewBox="0 0 28 30" fill="none" xmlns="http://www.w3.org/2000/svg">
<path fill-rule="evenodd" clip-rule="evenodd" d="M14.4017 11.116L8.93357 7L8.77597 7.20938L8.77518 7.20874L4 13.1332L4.77858 13.7607L9.11121 8.38535L10.0051 9.05818L6.53212 13.11L7.29138 13.7607L10.8056 9.66078L11.5697 10.2359L9.05291 13.1007L9.80417 13.7607L12.371 10.839L13.8003 11.9149L14.4017 11.116Z" fill="#FF6F61"/>
<path fill-rule="evenodd" clip-rule="evenodd" d="M13 19.6954L18.4921 23.7641L18.7153 23.461L23.402 17.6287L22.6244 17L18.3021 22.3787L17.4065 21.7152L20.8788 17.6519L20.1205 17L16.601 21.1185L15.8354 20.5514L18.367 17.6611L17.6167 17L15.0292 19.9541L13.593 18.8901L13 19.6954Z" fill="#FF6F61"/>
<path d="M0.397727 30L1.02273 26.3494L18.9347 5.98011H4.34659L5.19886 0.90909H27.4716L26.8608 4.55966L8.93466 24.929H23.5227L22.6705 30H0.397727Z" fill="url(#paint0_linear_0_1)"/>
<defs>
<linearGradient id="paint0_linear_0_1" x1="2.94118" y1="3.47059" x2="13.2353" y2="20.5294" gradientUnits="userSpaceOnUse">
<stop stop-color="#FF6F61"/>
<stop offset="1" stop-color="#BE2E73"/>
</linearGradient>
</defs>
</svg>
