<svg width="252" height="53" viewBox="0 0 252 53" fill="none" xmlns="http://www.w3.org/2000/svg">
<g filter="url(#filter0_d_0_1)">
<circle cx="26.5" cy="22.5" r="22.5" fill="url(#paint0_linear_0_1)"/>
</g>
<path d="M20.8068 37.9545V37.5L24.4659 35.6364V36.3636L21.6591 37.7159L21.6818 37.6705V37.7841L21.6591 37.7386L24.4659 39.0909V39.8182L20.8068 37.9545ZM27.9439 33.9091L26.0689 40.875H25.4553L27.3303 33.9091H27.9439ZM32.5909 37.9545L28.9318 39.8182V39.0909L31.7386 37.7386L31.7159 37.7841V37.6705L31.7386 37.7159L28.9318 36.3636V35.6364L32.5909 37.5V37.9545Z" fill="white"/>
<path d="M11.2187 27L11.5625 24.9922L21.4141 13.7891H13.3906L13.8594 11H26.1094L25.7734 13.0078L15.9141 24.2109H23.9375L23.4688 27H11.2187ZM31.8145 27H26.0645L28.7207 11H34.3613C35.9707 11 37.3066 11.3281 38.3691 11.9844C39.4368 12.6406 40.1895 13.5807 40.627 14.8047C41.0645 16.0234 41.1426 17.4792 40.8613 19.1719C40.5905 20.8073 40.0514 22.2109 39.2441 23.3828C38.4368 24.5495 37.403 25.4453 36.1426 26.0703C34.8822 26.6901 33.4395 27 31.8145 27ZM29.9316 24.1016H32.0098C33.015 24.1016 33.8952 23.9141 34.6504 23.5391C35.4108 23.1641 36.0332 22.5859 36.5176 21.8047C37.0072 21.0234 37.3535 20.0234 37.5566 18.8047C37.7493 17.6484 37.7363 16.7109 37.5176 15.9922C37.304 15.2682 36.89 14.7396 36.2754 14.4062C35.6608 14.0677 34.8535 13.8984 33.8535 13.8984H31.627L29.9316 24.1016Z" fill="white"/>
<path d="M61.4403 32V29.6271L70.8764 16.3871H61.4219V13.0909H75.8991V15.4638L66.4538 28.7038H75.9176V32H61.4403ZM85.3191 32.277C83.8849 32.277 82.6446 31.9723 81.5982 31.3629C80.5579 30.7474 79.7547 29.8918 79.1884 28.7962C78.6221 27.6944 78.339 26.4171 78.339 24.9645C78.339 23.4995 78.6221 22.2192 79.1884 21.1236C79.7547 20.0218 80.5579 19.1662 81.5982 18.5568C82.6446 17.9413 83.8849 17.6335 85.3191 17.6335C86.7533 17.6335 87.9905 17.9413 89.0307 18.5568C90.0771 19.1662 90.8835 20.0218 91.4498 21.1236C92.016 22.2192 92.2992 23.4995 92.2992 24.9645C92.2992 26.4171 92.016 27.6944 91.4498 28.7962C90.8835 29.8918 90.0771 30.7474 89.0307 31.3629C87.9905 31.9723 86.7533 32.277 85.3191 32.277ZM85.3375 29.2301C85.99 29.2301 86.5347 29.0455 86.9718 28.6761C87.4088 28.3007 87.7381 27.7898 87.9597 27.1435C88.1874 26.4972 88.3013 25.7616 88.3013 24.9368C88.3013 24.112 88.1874 23.3764 87.9597 22.7301C87.7381 22.0838 87.4088 21.5729 86.9718 21.1974C86.5347 20.822 85.99 20.6342 85.3375 20.6342C84.6789 20.6342 84.1249 20.822 83.6756 21.1974C83.2324 21.5729 82.897 22.0838 82.6692 22.7301C82.4476 23.3764 82.3368 24.112 82.3368 24.9368C82.3368 25.7616 82.4476 26.4972 82.6692 27.1435C82.897 27.7898 83.2324 28.3007 83.6756 28.6761C84.1249 29.0455 84.6789 29.2301 85.3375 29.2301ZM101.264 32.277C99.8302 32.277 98.5899 31.9723 97.5435 31.3629C96.5033 30.7474 95.7 29.8918 95.1337 28.7962C94.5674 27.6944 94.2843 26.4171 94.2843 24.9645C94.2843 23.4995 94.5674 22.2192 95.1337 21.1236C95.7 20.0218 96.5033 19.1662 97.5435 18.5568C98.5899 17.9413 99.8302 17.6335 101.264 17.6335C102.699 17.6335 103.936 17.9413 104.976 18.5568C106.022 19.1662 106.829 20.0218 107.395 21.1236C107.961 22.2192 108.244 23.4995 108.244 24.9645C108.244 26.4171 107.961 27.6944 107.395 28.7962C106.829 29.8918 106.022 30.7474 104.976 31.3629C103.936 31.9723 102.699 32.277 101.264 32.277ZM101.283 29.2301C101.935 29.2301 102.48 29.0455 102.917 28.6761C103.354 28.3007 103.683 27.7898 103.905 27.1435C104.133 26.4972 104.247 25.7616 104.247 24.9368C104.247 24.112 104.133 23.3764 103.905 22.7301C103.683 22.0838 103.354 21.5729 102.917 21.1974C102.48 20.822 101.935 20.6342 101.283 20.6342C100.624 20.6342 100.07 20.822 99.6209 21.1974C99.1777 21.5729 98.8423 22.0838 98.6145 22.7301C98.3929 23.3764 98.2821 24.112 98.2821 24.9368C98.2821 25.7616 98.3929 26.4972 98.6145 27.1435C98.8423 27.7898 99.1777 28.3007 99.6209 28.6761C100.07 29.0455 100.624 29.2301 101.283 29.2301ZM114.735 13.0909V32H110.802V13.0909H114.735ZM130.681 32H123.977V13.0909H130.736C132.638 13.0909 134.275 13.4695 135.648 14.2266C137.021 14.9775 138.076 16.0578 138.815 17.4673C139.56 18.8769 139.932 20.5634 139.932 22.527C139.932 24.4967 139.56 26.1894 138.815 27.6051C138.076 29.0208 137.014 30.1072 135.629 30.8643C134.251 31.6214 132.601 32 130.681 32ZM127.975 28.5746H130.514C131.696 28.5746 132.69 28.3653 133.497 27.9467C134.309 27.522 134.919 26.8665 135.325 25.9801C135.737 25.0876 135.943 23.9366 135.943 22.527C135.943 21.1297 135.737 19.9879 135.325 19.1016C134.919 18.2152 134.312 17.5627 133.506 17.1442C132.7 16.7256 131.705 16.5163 130.524 16.5163H127.975V28.5746ZM149.283 32.277C147.824 32.277 146.568 31.9815 145.516 31.3906C144.469 30.7936 143.663 29.9503 143.097 28.8608C142.53 27.7652 142.247 26.4695 142.247 24.9737C142.247 23.5149 142.53 22.2346 143.097 21.1328C143.663 20.031 144.46 19.1723 145.488 18.5568C146.522 17.9413 147.735 17.6335 149.126 17.6335C150.061 17.6335 150.932 17.7843 151.739 18.0859C152.551 18.3814 153.259 18.8277 153.862 19.4247C154.472 20.0218 154.946 20.7727 155.284 21.6776C155.623 22.5762 155.792 23.6288 155.792 24.8352V25.9155H143.817V23.478H152.089C152.089 22.9117 151.966 22.41 151.72 21.973C151.474 21.536 151.132 21.1944 150.695 20.9482C150.264 20.6958 149.763 20.5696 149.19 20.5696C148.593 20.5696 148.064 20.7081 147.602 20.9851C147.147 21.2559 146.79 21.6222 146.531 22.0838C146.273 22.5393 146.14 23.0471 146.134 23.6072V25.9247C146.134 26.6264 146.263 27.2327 146.522 27.7436C146.787 28.2545 147.159 28.6484 147.639 28.9254C148.119 29.2024 148.689 29.3409 149.347 29.3409C149.784 29.3409 150.184 29.2794 150.548 29.1562C150.911 29.0331 151.222 28.8485 151.48 28.6023C151.739 28.3561 151.936 28.0545 152.071 27.6974L155.709 27.9375C155.524 28.8116 155.146 29.5748 154.573 30.2273C154.007 30.8736 153.274 31.3783 152.376 31.7415C151.483 32.0985 150.452 32.277 149.283 32.277ZM171.199 17.8182L166.241 32H161.809L156.851 17.8182H161.006L163.952 27.9652H164.099L167.035 17.8182H171.199ZM179.218 32.277C177.759 32.277 176.504 31.9815 175.451 31.3906C174.405 30.7936 173.598 29.9503 173.032 28.8608C172.466 27.7652 172.183 26.4695 172.183 24.9737C172.183 23.5149 172.466 22.2346 173.032 21.1328C173.598 20.031 174.396 19.1723 175.423 18.5568C176.458 17.9413 177.67 17.6335 179.061 17.6335C179.997 17.6335 180.868 17.7843 181.674 18.0859C182.487 18.3814 183.195 18.8277 183.798 19.4247C184.407 20.0218 184.881 20.7727 185.22 21.6776C185.558 22.5762 185.727 23.6288 185.727 24.8352V25.9155H173.752V23.478H182.025C182.025 22.9117 181.902 22.41 181.656 21.973C181.41 21.536 181.068 21.1944 180.631 20.9482C180.2 20.6958 179.698 20.5696 179.126 20.5696C178.529 20.5696 177.999 20.7081 177.538 20.9851C177.082 21.2559 176.725 21.6222 176.467 22.0838C176.208 22.5393 176.076 23.0471 176.07 23.6072V25.9247C176.07 26.6264 176.199 27.2327 176.458 27.7436C176.722 28.2545 177.095 28.6484 177.575 28.9254C178.055 29.2024 178.624 29.3409 179.283 29.3409C179.72 29.3409 180.12 29.2794 180.483 29.1562C180.846 29.0331 181.157 28.8485 181.416 28.6023C181.674 28.3561 181.871 28.0545 182.007 27.6974L185.644 27.9375C185.46 28.8116 185.081 29.5748 184.509 30.2273C183.942 30.8736 183.21 31.3783 182.311 31.7415C181.419 32.0985 180.388 32.277 179.218 32.277ZM192.227 13.0909V32H188.294V13.0909H192.227ZM201.786 32.277C200.352 32.277 199.111 31.9723 198.065 31.3629C197.025 30.7474 196.221 29.8918 195.655 28.7962C195.089 27.6944 194.806 26.4171 194.806 24.9645C194.806 23.4995 195.089 22.2192 195.655 21.1236C196.221 20.0218 197.025 19.1662 198.065 18.5568C199.111 17.9413 200.352 17.6335 201.786 17.6335C203.22 17.6335 204.457 17.9413 205.498 18.5568C206.544 19.1662 207.35 20.0218 207.917 21.1236C208.483 22.2192 208.766 23.4995 208.766 24.9645C208.766 26.4171 208.483 27.6944 207.917 28.7962C207.35 29.8918 206.544 30.7474 205.498 31.3629C204.457 31.9723 203.22 32.277 201.786 32.277ZM201.804 29.2301C202.457 29.2301 203.002 29.0455 203.439 28.6761C203.876 28.3007 204.205 27.7898 204.426 27.1435C204.654 26.4972 204.768 25.7616 204.768 24.9368C204.768 24.112 204.654 23.3764 204.426 22.7301C204.205 22.0838 203.876 21.5729 203.439 21.1974C203.002 20.822 202.457 20.6342 201.804 20.6342C201.146 20.6342 200.592 20.822 200.142 21.1974C199.699 21.5729 199.364 22.0838 199.136 22.7301C198.914 23.3764 198.804 24.112 198.804 24.9368C198.804 25.7616 198.914 26.4972 199.136 27.1435C199.364 27.7898 199.699 28.3007 200.142 28.6761C200.592 29.0455 201.146 29.2301 201.804 29.2301ZM211.324 37.3182V17.8182H215.201V20.2003H215.377C215.549 19.8187 215.798 19.4309 216.125 19.0369C216.457 18.6368 216.888 18.3045 217.417 18.0398C217.953 17.7689 218.618 17.6335 219.412 17.6335C220.446 17.6335 221.4 17.9044 222.274 18.446C223.148 18.9815 223.846 19.791 224.37 20.8743C224.893 21.9515 225.154 23.3026 225.154 24.9276C225.154 26.5095 224.899 27.8452 224.388 28.9347C223.883 30.018 223.194 30.8397 222.32 31.3999C221.452 31.9538 220.48 32.2308 219.402 32.2308C218.639 32.2308 217.99 32.1046 217.454 31.8523C216.925 31.5999 216.491 31.2829 216.152 30.9013C215.814 30.5135 215.555 30.1226 215.377 29.7287H215.257V37.3182H211.324ZM215.174 24.9091C215.174 25.7524 215.291 26.4879 215.525 27.1158C215.758 27.7436 216.097 28.233 216.54 28.5838C216.983 28.9285 217.522 29.1009 218.156 29.1009C218.796 29.1009 219.338 28.9254 219.781 28.5746C220.224 28.2176 220.56 27.7251 220.787 27.0973C221.021 26.4633 221.138 25.7339 221.138 24.9091C221.138 24.0904 221.024 23.3703 220.797 22.7486C220.569 22.1269 220.233 21.6406 219.79 21.2898C219.347 20.9389 218.802 20.7635 218.156 20.7635C217.516 20.7635 216.974 20.9328 216.531 21.2713C216.094 21.6098 215.758 22.09 215.525 22.7116C215.291 23.3333 215.174 24.0658 215.174 24.9091ZM234.24 32.277C232.781 32.277 231.525 31.9815 230.473 31.3906C229.426 30.7936 228.62 29.9503 228.054 28.8608C227.487 27.7652 227.204 26.4695 227.204 24.9737C227.204 23.5149 227.487 22.2346 228.054 21.1328C228.62 20.031 229.417 19.1723 230.445 18.5568C231.479 17.9413 232.692 17.6335 234.083 17.6335C235.018 17.6335 235.889 17.7843 236.696 18.0859C237.508 18.3814 238.216 18.8277 238.819 19.4247C239.429 20.0218 239.903 20.7727 240.241 21.6776C240.58 22.5762 240.749 23.6288 240.749 24.8352V25.9155H228.774V23.478H237.047C237.047 22.9117 236.923 22.41 236.677 21.973C236.431 21.536 236.089 21.1944 235.652 20.9482C235.221 20.6958 234.72 20.5696 234.147 20.5696C233.55 20.5696 233.021 20.7081 232.559 20.9851C232.104 21.2559 231.747 21.6222 231.488 22.0838C231.23 22.5393 231.097 23.0471 231.091 23.6072V25.9247C231.091 26.6264 231.221 27.2327 231.479 27.7436C231.744 28.2545 232.116 28.6484 232.596 28.9254C233.076 29.2024 233.646 29.3409 234.304 29.3409C234.741 29.3409 235.141 29.2794 235.505 29.1562C235.868 29.0331 236.179 28.8485 236.437 28.6023C236.696 28.3561 236.893 28.0545 237.028 27.6974L240.666 27.9375C240.481 28.8116 240.103 29.5748 239.53 30.2273C238.964 30.8736 238.231 31.3783 237.333 31.7415C236.44 32.0985 235.409 32.277 234.24 32.277ZM243.316 32V17.8182H247.129V20.2926H247.277C247.535 19.4124 247.969 18.7476 248.578 18.2983C249.188 17.8428 249.89 17.6151 250.684 17.6151C250.881 17.6151 251.093 17.6274 251.321 17.652C251.548 17.6766 251.748 17.7105 251.921 17.7536V21.2436C251.736 21.1882 251.481 21.139 251.154 21.0959C250.828 21.0528 250.53 21.0312 250.259 21.0312C249.68 21.0312 249.163 21.1574 248.708 21.4098C248.258 21.656 247.901 22.0007 247.637 22.4439C247.378 22.8871 247.249 23.398 247.249 23.9766V32H243.316Z" fill="url(#paint1_linear_0_1)"/>
<path d="M12 31H42" stroke="black" stroke-opacity="0.56" stroke-linecap="round"/>
<defs>
<filter id="filter0_d_0_1" x="0" y="0" width="53" height="53" filterUnits="userSpaceOnUse" color-interpolation-filters="sRGB">
<feFlood flood-opacity="0" result="BackgroundImageFix"/>
<feColorMatrix in="SourceAlpha" type="matrix" values="0 0 0 0 0 0 0 0 0 0 0 0 0 0 0 0 0 0 127 0" result="hardAlpha"/>
<feOffset dy="4"/>
<feGaussianBlur stdDeviation="2"/>
<feComposite in2="hardAlpha" operator="out"/>
<feColorMatrix type="matrix" values="0 0 0 0 0 0 0 0 0 0 0 0 0 0 0 0 0 0 0.25 0"/>
<feBlend mode="normal" in2="BackgroundImageFix" result="effect1_dropShadow_0_1"/>
<feBlend mode="normal" in="SourceGraphic" in2="effect1_dropShadow_0_1" result="shape"/>
</filter>
<linearGradient id="paint0_linear_0_1" x1="4" y1="15.75" x2="46.1875" y2="38.8125" gradientUnits="userSpaceOnUse">
<stop stop-color="#FF6F61"/>
<stop offset="1" stop-color="#BE2E73"/>
</linearGradient>
<linearGradient id="paint1_linear_0_1" x1="60" y1="13.4138" x2="256.746" y2="32.1056" gradientUnits="userSpaceOnUse">
<stop stop-color="#FF6F61"/>
<stop offset="1" stop-color="#BE2E73"/>
</linearGradient>
</defs>
</svg>
