<svg width="218" height="53" viewBox="0 0 218 53" fill="none" xmlns="http://www.w3.org/2000/svg">
<path d="M13.3977 37L14.0227 33.3494L31.9347 12.9801H17.3466L18.1989 7.90909H40.4716L39.8608 11.5597L21.9347 31.929H36.5227L35.6705 37H13.3977Z" fill="url(#paint0_linear_0_1)"/>
<path d="M56.2188 31V28.9922L64.2031 17.7891H56.2031V15H68.4531V17.0078L60.4609 28.2109H68.4688V31H56.2188ZM76.4238 31.2344C75.2103 31.2344 74.1608 30.9766 73.2754 30.4609C72.3952 29.9401 71.7155 29.2161 71.2363 28.2891C70.7572 27.3568 70.5176 26.276 70.5176 25.0469C70.5176 23.8073 70.7572 22.724 71.2363 21.7969C71.7155 20.8646 72.3952 20.1406 73.2754 19.625C74.1608 19.1042 75.2103 18.8438 76.4238 18.8438C77.6374 18.8438 78.6842 19.1042 79.5645 19.625C80.4499 20.1406 81.1322 20.8646 81.6113 21.7969C82.0905 22.724 82.3301 23.8073 82.3301 25.0469C82.3301 26.276 82.0905 27.3568 81.6113 28.2891C81.1322 29.2161 80.4499 29.9401 79.5645 30.4609C78.6842 30.9766 77.6374 31.2344 76.4238 31.2344ZM76.4395 28.6562C76.9915 28.6562 77.4525 28.5 77.8223 28.1875C78.1921 27.8698 78.4707 27.4375 78.6582 26.8906C78.8509 26.3437 78.9473 25.7214 78.9473 25.0234C78.9473 24.3255 78.8509 23.7031 78.6582 23.1562C78.4707 22.6094 78.1921 22.1771 77.8223 21.8594C77.4525 21.5417 76.9915 21.3828 76.4395 21.3828C75.8822 21.3828 75.4134 21.5417 75.0332 21.8594C74.6582 22.1771 74.3743 22.6094 74.1816 23.1562C73.9941 23.7031 73.9004 24.3255 73.9004 25.0234C73.9004 25.7214 73.9941 26.3437 74.1816 26.8906C74.3743 27.4375 74.6582 27.8698 75.0332 28.1875C75.4134 28.5 75.8822 28.6562 76.4395 28.6562ZM89.916 31.2344C88.7025 31.2344 87.653 30.9766 86.7676 30.4609C85.8874 29.9401 85.2077 29.2161 84.7285 28.2891C84.2493 27.3568 84.0098 26.276 84.0098 25.0469C84.0098 23.8073 84.2493 22.724 84.7285 21.7969C85.2077 20.8646 85.8874 20.1406 86.7676 19.625C87.653 19.1042 88.7025 18.8438 89.916 18.8438C91.1296 18.8438 92.1764 19.1042 93.0566 19.625C93.9421 20.1406 94.6243 20.8646 95.1035 21.7969C95.5827 22.724 95.8223 23.8073 95.8223 25.0469C95.8223 26.276 95.5827 27.3568 95.1035 28.2891C94.6243 29.2161 93.9421 29.9401 93.0566 30.4609C92.1764 30.9766 91.1296 31.2344 89.916 31.2344ZM89.9316 28.6562C90.4837 28.6562 90.9447 28.5 91.3145 28.1875C91.6842 27.8698 91.9629 27.4375 92.1504 26.8906C92.3431 26.3437 92.4395 25.7214 92.4395 25.0234C92.4395 24.3255 92.3431 23.7031 92.1504 23.1562C91.9629 22.6094 91.6842 22.1771 91.3145 21.8594C90.9447 21.5417 90.4837 21.3828 89.9316 21.3828C89.3743 21.3828 88.9056 21.5417 88.5254 21.8594C88.1504 22.1771 87.8665 22.6094 87.6738 23.1562C87.4863 23.7031 87.3926 24.3255 87.3926 25.0234C87.3926 25.7214 87.4863 26.3437 87.6738 26.8906C87.8665 27.4375 88.1504 27.8698 88.5254 28.1875C88.9056 28.5 89.3743 28.6562 89.9316 28.6562ZM101.314 15V31H97.9863V15H101.314ZM114.807 31H109.135V15H114.854C116.463 15 117.848 15.3203 119.01 15.9609C120.171 16.5964 121.064 17.5104 121.689 18.7031C122.32 19.8958 122.635 21.3229 122.635 22.9844C122.635 24.651 122.32 26.0833 121.689 27.2812C121.064 28.4792 120.166 29.3984 118.994 30.0391C117.827 30.6797 116.432 31 114.807 31ZM112.518 28.1016H114.666C115.666 28.1016 116.507 27.9245 117.189 27.5703C117.877 27.2109 118.393 26.6562 118.736 25.9062C119.085 25.151 119.26 24.1771 119.26 22.9844C119.26 21.8021 119.085 20.8359 118.736 20.0859C118.393 19.3359 117.88 18.7839 117.197 18.4297C116.515 18.0755 115.674 17.8984 114.674 17.8984H112.518V28.1016ZM130.547 31.2344C129.313 31.2344 128.25 30.9844 127.359 30.4844C126.474 29.9792 125.792 29.2656 125.312 28.3437C124.833 27.4167 124.594 26.3203 124.594 25.0547C124.594 23.8203 124.833 22.737 125.312 21.8047C125.792 20.8724 126.466 20.1458 127.336 19.625C128.211 19.1042 129.237 18.8438 130.414 18.8438C131.206 18.8438 131.943 18.9714 132.625 19.2266C133.313 19.4766 133.911 19.8542 134.422 20.3594C134.938 20.8646 135.339 21.5 135.625 22.2656C135.911 23.026 136.055 23.9167 136.055 24.9375V25.8516H125.922V23.7891H132.922C132.922 23.3099 132.818 22.8854 132.609 22.5156C132.401 22.1458 132.112 21.8568 131.742 21.6484C131.378 21.4349 130.953 21.3281 130.469 21.3281C129.964 21.3281 129.516 21.4453 129.125 21.6797C128.74 21.9089 128.438 22.2187 128.219 22.6094C128 22.9948 127.888 23.4245 127.883 23.8984V25.8594C127.883 26.4531 127.992 26.9661 128.211 27.3984C128.435 27.8307 128.75 28.1641 129.156 28.3984C129.563 28.6328 130.044 28.75 130.602 28.75C130.971 28.75 131.31 28.6979 131.617 28.5938C131.924 28.4896 132.188 28.3333 132.406 28.125C132.625 27.9167 132.792 27.6615 132.906 27.3594L135.984 27.5625C135.828 28.3021 135.508 28.9479 135.023 29.5C134.544 30.0469 133.924 30.474 133.164 30.7813C132.409 31.0833 131.536 31.2344 130.547 31.2344ZM149.092 19L144.896 31H141.146L136.951 19H140.467L142.959 27.5859H143.084L145.568 19H149.092ZM155.877 31.2344C154.643 31.2344 153.58 30.9844 152.689 30.4844C151.804 29.9792 151.122 29.2656 150.643 28.3437C150.163 27.4167 149.924 26.3203 149.924 25.0547C149.924 23.8203 150.163 22.737 150.643 21.8047C151.122 20.8724 151.796 20.1458 152.666 19.625C153.541 19.1042 154.567 18.8438 155.744 18.8438C156.536 18.8438 157.273 18.9714 157.955 19.2266C158.643 19.4766 159.242 19.8542 159.752 20.3594C160.268 20.8646 160.669 21.5 160.955 22.2656C161.242 23.026 161.385 23.9167 161.385 24.9375V25.8516H151.252V23.7891H158.252C158.252 23.3099 158.148 22.8854 157.939 22.5156C157.731 22.1458 157.442 21.8568 157.072 21.6484C156.708 21.4349 156.283 21.3281 155.799 21.3281C155.294 21.3281 154.846 21.4453 154.455 21.6797C154.07 21.9089 153.768 22.2187 153.549 22.6094C153.33 22.9948 153.218 23.4245 153.213 23.8984V25.8594C153.213 26.4531 153.322 26.9661 153.541 27.3984C153.765 27.8307 154.08 28.1641 154.486 28.3984C154.893 28.6328 155.374 28.75 155.932 28.75C156.301 28.75 156.64 28.6979 156.947 28.5938C157.255 28.4896 157.518 28.3333 157.736 28.125C157.955 27.9167 158.122 27.6615 158.236 27.3594L161.314 27.5625C161.158 28.3021 160.838 28.9479 160.354 29.5C159.874 30.0469 159.255 30.474 158.494 30.7813C157.739 31.0833 156.867 31.2344 155.877 31.2344ZM166.885 15V31H163.557V15H166.885ZM174.973 31.2344C173.759 31.2344 172.71 30.9766 171.824 30.4609C170.944 29.9401 170.264 29.2161 169.785 28.2891C169.306 27.3568 169.066 26.276 169.066 25.0469C169.066 23.8073 169.306 22.724 169.785 21.7969C170.264 20.8646 170.944 20.1406 171.824 19.625C172.71 19.1042 173.759 18.8438 174.973 18.8438C176.186 18.8438 177.233 19.1042 178.113 19.625C178.999 20.1406 179.681 20.8646 180.16 21.7969C180.639 22.724 180.879 23.8073 180.879 25.0469C180.879 26.276 180.639 27.3568 180.16 28.2891C179.681 29.2161 178.999 29.9401 178.113 30.4609C177.233 30.9766 176.186 31.2344 174.973 31.2344ZM174.988 28.6562C175.54 28.6562 176.001 28.5 176.371 28.1875C176.741 27.8698 177.02 27.4375 177.207 26.8906C177.4 26.3437 177.496 25.7214 177.496 25.0234C177.496 24.3255 177.4 23.7031 177.207 23.1562C177.02 22.6094 176.741 22.1771 176.371 21.8594C176.001 21.5417 175.54 21.3828 174.988 21.3828C174.431 21.3828 173.962 21.5417 173.582 21.8594C173.207 22.1771 172.923 22.6094 172.73 23.1562C172.543 23.7031 172.449 24.3255 172.449 25.0234C172.449 25.7214 172.543 26.3437 172.73 26.8906C172.923 27.4375 173.207 27.8698 173.582 28.1875C173.962 28.5 174.431 28.6562 174.988 28.6562ZM183.043 35.5V19H186.324V21.0156H186.473C186.618 20.6927 186.829 20.3646 187.105 20.0312C187.387 19.6927 187.751 19.4115 188.199 19.1875C188.652 18.9583 189.215 18.8438 189.887 18.8438C190.762 18.8438 191.569 19.0729 192.309 19.5313C193.048 19.9844 193.639 20.6693 194.082 21.5859C194.525 22.4974 194.746 23.6406 194.746 25.0156C194.746 26.3542 194.53 27.4844 194.098 28.4062C193.671 29.3229 193.087 30.0182 192.348 30.4922C191.613 30.9609 190.79 31.1953 189.879 31.1953C189.233 31.1953 188.684 31.0885 188.23 30.875C187.783 30.6615 187.415 30.3932 187.129 30.0703C186.842 29.7422 186.624 29.4115 186.473 29.0781H186.371V35.5H183.043ZM186.301 25C186.301 25.7135 186.4 26.3359 186.598 26.8672C186.796 27.3984 187.082 27.8125 187.457 28.1094C187.832 28.401 188.288 28.5469 188.824 28.5469C189.366 28.5469 189.824 28.3984 190.199 28.1016C190.574 27.7995 190.858 27.3828 191.051 26.8516C191.249 26.3151 191.348 25.6979 191.348 25C191.348 24.3073 191.251 23.6979 191.059 23.1719C190.866 22.6458 190.582 22.2344 190.207 21.9375C189.832 21.6406 189.371 21.4922 188.824 21.4922C188.283 21.4922 187.824 21.6354 187.449 21.9219C187.079 22.2083 186.796 22.6146 186.598 23.1406C186.4 23.6667 186.301 24.2865 186.301 25ZM202.434 31.2344C201.199 31.2344 200.137 30.9844 199.246 30.4844C198.361 29.9792 197.678 29.2656 197.199 28.3437C196.72 27.4167 196.48 26.3203 196.48 25.0547C196.48 23.8203 196.72 22.737 197.199 21.8047C197.678 20.8724 198.353 20.1458 199.223 19.625C200.098 19.1042 201.124 18.8438 202.301 18.8438C203.092 18.8438 203.829 18.9714 204.512 19.2266C205.199 19.4766 205.798 19.8542 206.309 20.3594C206.824 20.8646 207.225 21.5 207.512 22.2656C207.798 23.026 207.941 23.9167 207.941 24.9375V25.8516H197.809V23.7891H204.809C204.809 23.3099 204.704 22.8854 204.496 22.5156C204.288 22.1458 203.999 21.8568 203.629 21.6484C203.264 21.4349 202.84 21.3281 202.355 21.3281C201.85 21.3281 201.402 21.4453 201.012 21.6797C200.626 21.9089 200.324 22.2187 200.105 22.6094C199.887 22.9948 199.775 23.4245 199.77 23.8984V25.8594C199.77 26.4531 199.879 26.9661 200.098 27.3984C200.322 27.8307 200.637 28.1641 201.043 28.3984C201.449 28.6328 201.931 28.75 202.488 28.75C202.858 28.75 203.197 28.6979 203.504 28.5938C203.811 28.4896 204.074 28.3333 204.293 28.125C204.512 27.9167 204.678 27.6615 204.793 27.3594L207.871 27.5625C207.715 28.3021 207.395 28.9479 206.91 29.5C206.431 30.0469 205.811 30.474 205.051 30.7813C204.296 31.0833 203.423 31.2344 202.434 31.2344ZM210.113 31V19H213.34V21.0937H213.465C213.684 20.349 214.051 19.7865 214.566 19.4063C215.082 19.0208 215.676 18.8281 216.348 18.8281C216.514 18.8281 216.694 18.8385 216.887 18.8594C217.079 18.8802 217.249 18.9089 217.395 18.9453V21.8984C217.238 21.8516 217.022 21.8099 216.746 21.7734C216.47 21.737 216.217 21.7188 215.988 21.7188C215.499 21.7188 215.061 21.8255 214.676 22.0391C214.296 22.2474 213.993 22.5391 213.77 22.9141C213.551 23.2891 213.441 23.7214 213.441 24.2109V31H210.113Z" fill="url(#paint1_linear_0_1)"/>
<line x1="47.3443" y1="15.3297" x2="35.3758" y2="28.9719" stroke="#FF6F61"/>
<line x1="6.61551" y1="29.2051" x2="18.2169" y2="15.2495" stroke="#FF6F61"/>
<path d="M30.322 24.6175L36 29" stroke="#FF6F61"/>
<path d="M23.3847 19.4679L17.5921 15.238" stroke="#FF6F61"/>
<g filter="url(#filter0_d_0_1)">
<circle cx="26.5" cy="22.5" r="21.5" stroke="url(#paint2_linear_0_1)" stroke-width="2" shape-rendering="crispEdges"/>
</g>
<defs>
<filter id="filter0_d_0_1" x="0" y="0" width="53" height="53" filterUnits="userSpaceOnUse" color-interpolation-filters="sRGB">
<feFlood flood-opacity="0" result="BackgroundImageFix"/>
<feColorMatrix in="SourceAlpha" type="matrix" values="0 0 0 0 0 0 0 0 0 0 0 0 0 0 0 0 0 0 127 0" result="hardAlpha"/>
<feOffset dy="4"/>
<feGaussianBlur stdDeviation="2"/>
<feComposite in2="hardAlpha" operator="out"/>
<feColorMatrix type="matrix" values="0 0 0 0 0 0 0 0 0 0 0 0 0 0 0 0 0 0 0.25 0"/>
<feBlend mode="normal" in2="BackgroundImageFix" result="effect1_dropShadow_0_1"/>
<feBlend mode="normal" in="SourceGraphic" in2="effect1_dropShadow_0_1" result="shape"/>
</filter>
<linearGradient id="paint0_linear_0_1" x1="18.5" y1="8" x2="44.4774" y2="24.2372" gradientUnits="userSpaceOnUse">
<stop offset="0.00927781" stop-color="#FF6F61"/>
<stop offset="1" stop-color="#BE2E73"/>
</linearGradient>
<linearGradient id="paint1_linear_0_1" x1="55" y1="14.5862" x2="221.252" y2="29.9021" gradientUnits="userSpaceOnUse">
<stop stop-color="#FF6F61"/>
<stop offset="1" stop-color="#BE2E73"/>
</linearGradient>
<linearGradient id="paint2_linear_0_1" x1="26.5" y1="0" x2="26.5" y2="45" gradientUnits="userSpaceOnUse">
<stop stop-color="#FF6F61"/>
<stop offset="1" stop-color="#BE2E73"/>
</linearGradient>
</defs>
</svg>
